<svg width="30" height="30" viewBox="0 0 30 30" fill="none" xmlns="http://www.w3.org/2000/svg">
<path fill-rule="evenodd" clip-rule="evenodd" d="M15 30C23.2843 30 30 23.2843 30 15C30 6.71573 23.2843 0 15 0C6.71573 0 0 6.71573 0 15C0 23.2843 6.71573 30 15 30ZM25.27 12.4216C24.4484 11.6864 23.2538 11.3189 21.6863 11.3189C20.1836 11.3189 19.0052 11.6972 18.1511 12.454C17.2971 13.2108 16.87 14.3243 16.87 15.7945C16.87 17.2972 17.3079 18.4216 18.1836 19.1675C19.0592 19.9026 20.2917 20.2702 21.8809 20.2702C23.3944 20.2702 24.5457 19.9783 25.3349 19.3945C26.1241 18.8108 26.5187 17.9999 26.5187 16.9621H23.389C23.389 17.3405 23.2592 17.6432 22.9998 17.8702C22.7511 18.0972 22.3565 18.2108 21.816 18.2108C21.2214 18.2108 20.7836 18.054 20.5025 17.7405C20.2322 17.427 20.0971 16.9621 20.0971 16.3459H26.5187V15.7945C26.5187 14.281 26.1025 13.1567 25.27 12.4216ZM20.1133 14.8216C20.2322 13.8594 20.7998 13.3783 21.816 13.3783C22.27 13.3783 22.6214 13.508 22.8701 13.7675C23.1295 14.027 23.2592 14.3783 23.2592 14.8216H20.1133ZM12.2919 8.91892C12.8541 8.91892 13.3676 9.03784 13.8324 9.27568C14.3081 9.5027 14.6811 9.82703 14.9514 10.2486C15.2324 10.6703 15.373 11.1405 15.373 11.6595C15.373 13.0324 14.7514 13.8973 13.5081 14.2541V14.3189C14.9243 14.6432 15.6324 15.573 15.6324 17.1081C15.6324 17.6919 15.4865 18.2108 15.1946 18.6649C14.9135 19.1081 14.5243 19.4541 14.027 19.7027C13.5297 19.9514 12.9838 20.0757 12.3892 20.0757H4.86486V8.91892H12.2919ZM8.44865 13.2649H10.9135C11.1514 13.2649 11.3459 13.1838 11.4973 13.0216C11.6595 12.8486 11.7405 12.6378 11.7405 12.3892V12.227C11.7405 11.9892 11.6595 11.7892 11.4973 11.627C11.3351 11.4541 11.1405 11.3676 10.9135 11.3676H8.44865V13.2649ZM8.44865 17.4811H11.173C11.4108 17.4811 11.6054 17.4 11.7568 17.2378C11.9189 17.0649 12 16.8541 12 16.6054V16.4432C12 16.1946 11.9189 15.9892 11.7568 15.827C11.6054 15.6541 11.4108 15.5676 11.173 15.5676H8.44865V17.4811ZM24.708 9.53512H18.2215V10.3459H24.708V9.53512Z" fill="white"/>
</svg>
