<svg width="31" height="30" viewBox="0 0 31 30" fill="none" xmlns="http://www.w3.org/2000/svg">
<path d="M11.4392 28.1922C11.5993 28.8329 11.4392 30.2745 10.4788 29.9542C6.63705 28.7795 -0.822318 23.8993 0.0740882 13.7757C1.99496 0.320381 12.7198 1.59827e-05 15.4411 0C19.763 -2.53844e-05 29.6875 2.56292 30.6479 13.7757C31.6084 24.9885 21.844 29.1532 20.5634 29.6338C19.5389 30.0182 19.1761 29.4736 19.1227 29.1532C19.016 28.6193 18.8666 27.3272 19.1227 26.4301C19.4429 25.3089 19.1227 22.4256 18.1623 21.945C22.004 21.945 23.7648 19.7025 24.5652 17.9405C25.3655 16.1784 25.5256 11.6933 23.2846 10.4119C24.181 8.74599 23.6581 6.94126 23.2846 6.24713C22.5376 6.24713 20.6594 6.5675 19.1227 7.84896C16.1774 6.82379 12.7732 7.42181 11.4392 7.84896C10.4254 7.26162 8.17376 6.11898 7.27735 6.24713C6.38095 7.40045 6.69041 9.50418 6.95719 10.4119C6.37026 10.6255 5.29245 12.1419 5.67663 16.4988C6.0608 20.8558 10.5322 21.945 12.7198 21.945C12.293 22.1586 11.4392 22.8741 11.4392 24.0274C8.87804 25.1487 7.27735 23.8672 6.95719 22.9061C6.63703 21.945 5.19639 21.3043 4.5561 21.3043C3.91581 21.3043 4.07588 21.945 4.23596 21.945C5.19639 22.1052 5.67661 23.707 6.95719 25.469C7.98165 26.8787 10.3721 26.6971 11.4392 26.4301C11.3859 26.8039 11.3112 27.6796 11.4392 28.1922Z" fill="white"/>
</svg>
