<svg width="33" height="30" viewBox="0 0 33 30" fill="none" xmlns="http://www.w3.org/2000/svg">
<path d="M14.0854 22.6829V11.2728H17.5839L17.6297 12.6677H17.6754C17.965 12.1722 18.4109 11.7721 19.013 11.4672C19.6228 11.1623 20.324 11.0099 21.1167 11.0099C22.2905 11.0099 23.2432 11.3414 23.9749 12.0046C24.7143 12.66 25.0839 13.7881 25.0839 15.3887V22.6829H21.4711V15.6174C21.4711 14.9314 21.3225 14.4474 21.0252 14.1654C20.7356 13.8834 20.324 13.7424 19.7905 13.7424C19.3408 13.7424 18.9292 13.8719 18.5557 14.1311C18.1822 14.3902 17.8964 14.7485 17.6983 15.2058V22.6829H14.0854Z" fill="white"/>
<path d="M7.88873 22.6829V11.2728H11.5358V22.6829H7.88873ZM7.63721 7.77437C7.63721 7.24084 7.81632 6.79495 8.17455 6.43672C8.53279 6.07087 9.04727 5.88794 9.718 5.88794C10.3811 5.88794 10.8918 6.07087 11.25 6.43672C11.6082 6.79495 11.7874 7.24084 11.7874 7.77437C11.7874 8.30791 11.6044 8.76142 11.2386 9.13489C10.8803 9.50074 10.3659 9.68367 9.69513 9.68367C9.03202 9.68367 8.52135 9.50074 8.16312 9.13489C7.81251 8.76142 7.63721 8.30791 7.63721 7.77437Z" fill="white"/>
<rect x="0.5" y="0.5" width="31.9268" height="29" rx="4.5" stroke="white"/>
</svg>
